<svg xmlns="http://www.w3.org/2000/svg" width="238.538" height="36.364" viewBox="0 0 238.538 36.364"><defs><style>.a{fill:#1acc00;}</style></defs><g transform="translate(50.814 0.23)"><g transform="translate(0 2.752)"><path class="a" d="M154.855,41.991a3.047,3.047,0,1,1,3.18-3.044A3.106,3.106,0,0,1,154.855,41.991Zm-2.773,19.176V44.325h5.546V61.168Z" transform="translate(-151.676 -35.903)"/><path class="a" d="M182.617,43.745V62.753h-5.784V43.745h-6.765V38.807h19.312v4.938Z" transform="translate(-161.715 -37.488)"/><path class="a" d="M221.951,58.408a5.382,5.382,0,0,0-1.42-.169,3.806,3.806,0,0,0-3.956,3.821v8.658h-5.548V53.876h5.344v2.435h.067A5.086,5.086,0,0,1,221,53.4a3.92,3.92,0,0,1,1.184.136Z" transform="translate(-184.071 -45.454)"/><path class="a" d="M237.829,56.1a11.038,11.038,0,0,1,7.508-2.841c5.65,0,7.746,2.773,7.746,8.9v8.489H248.01V68.846h-.1a5.587,5.587,0,0,1-4.769,2.2c-2.672,0-6.122-1.319-6.122-5.276,0-4.871,5.919-5.683,10.823-5.683v-.27c0-1.657-1.319-2.435-3.045-2.435a6.379,6.379,0,0,0-4.16,1.725Zm10.181,7.2H247.3c-2.435,0-5.175.3-5.175,2.3,0,1.285,1.285,1.724,2.4,1.724a3.192,3.192,0,0,0,3.484-3.45Z" transform="translate(-198.257 -45.374)"/><path class="a" d="M292.534,70.719v-9.2c0-1.86-.507-3.55-2.5-3.55-1.962,0-2.977,1.69-2.977,3.618v9.132h-5.581V53.876h5.378V56.21h.067A5.744,5.744,0,0,1,291.96,53.4c4.532,0,6.157,3.518,6.157,6.9V70.719Z" transform="translate(-222.523 -45.454)"/><path class="a" d="M335.1,58.767a5.255,5.255,0,0,0-3.517-1.522c-1.047,0-2.1.372-2.1,1.353,0,.947.914,1.218,3.078,1.692,2.571.575,5.378,1.859,5.378,5.141,0,4.261-3.755,5.749-7.2,5.749a10.87,10.87,0,0,1-7.339-2.605l3.112-3.279a5.728,5.728,0,0,0,4.127,1.893c.912,0,2-.372,2-1.454,0-1.049-1.05-1.387-3.349-1.928-2.334-.541-4.9-1.725-4.9-4.9,0-4.025,3.787-5.649,7-5.649a10.114,10.114,0,0,1,6.765,2.368Z" transform="translate(-245.407 -45.374)"/><path class="a" d="M373.081,59.241a3.852,3.852,0,0,0-2.942-1.353,4.312,4.312,0,1,0,3.077,7.372l3.078,3.755a9.13,9.13,0,0,1-6.224,2.165c-5.31,0-9.436-3.382-9.436-8.963,0-5.479,4.16-8.963,9.4-8.963a9.274,9.274,0,0,1,6.257,2.266Z" transform="translate(-265.73 -45.374)"/><path class="a" d="M410.878,58.408a5.385,5.385,0,0,0-1.42-.169,3.807,3.807,0,0,0-3.957,3.821v8.658h-5.546V53.876H405.3v2.435h.068a5.085,5.085,0,0,1,4.566-2.909,3.92,3.92,0,0,1,1.184.136Z" transform="translate(-287.191 -45.454)"/><path class="a" d="M431.879,41.991a3.047,3.047,0,1,1,3.179-3.044A3.106,3.106,0,0,1,431.879,41.991Zm-2.773,19.176V44.325h5.546V61.168Z" transform="translate(-302.881 -35.903)"/><path class="a" d="M462.208,71.193a6.345,6.345,0,0,1-5.108-2.334h-.068v9.978h-5.546V53.876h5.277V55.94h.1a6.686,6.686,0,0,1,5.378-2.538c4.9,0,7.981,4.126,7.981,8.828S467.281,71.193,462.208,71.193Zm-1.319-13.258a4.338,4.338,0,0,0,0,8.658c2.637,0,3.956-2.165,3.956-4.363C464.845,60.066,463.526,57.935,460.889,57.935Z" transform="translate(-315.318 -45.454)"/><path class="a" d="M503.913,53.282v6.426c0,1.555.508,2.368,2.1,2.368a4.807,4.807,0,0,0,1.622-.271l.068,4.059a10.46,10.46,0,0,1-3.212.507c-4.5,0-5.987-2.4-5.987-5.986v-7.1H495.8v-4.16h2.672V44.691h5.445v4.431h3.956v4.16Z" transform="translate(-339.503 -40.7)"/></g><g transform="translate(176.166 0)"><path class="a" d="M549.415,39.717a5.783,5.783,0,0,1-8.171-8.186,5.783,5.783,0,0,1,8.171,8.186ZM541.8,32.1a4.811,4.811,0,0,0-1.451,3.522,4.869,4.869,0,0,0,1.443,3.545,4.963,4.963,0,0,0,7.044,0,5.033,5.033,0,0,0,0-7.068,4.957,4.957,0,0,0-7.036,0Zm3.4.323a4.833,4.833,0,0,1,1.733.229,1.574,1.574,0,0,1,.985,1.608,1.387,1.387,0,0,1-.62,1.254,2.423,2.423,0,0,1-.918.307,1.536,1.536,0,0,1,1.09.622,1.737,1.737,0,0,1,.345.983v.465c0,.148.005.3.015.472a1.026,1.026,0,0,0,.055.331l.04.079h-1.048c-.006-.021-.01-.042-.017-.063s-.009-.045-.015-.071l-.023-.2v-.5a1.552,1.552,0,0,0-.6-1.453,2.693,2.693,0,0,0-1.245-.2h-.882v2.5h-1.119V32.421Zm1.208,1a2.913,2.913,0,0,0-1.355-.237h-.956v2.3h1.011a3.024,3.024,0,0,0,1.066-.142,1.143,1.143,0,0,0,.233-1.922Z" transform="translate(-539.551 -29.844)"/></g></g><path class="a" d="M74.25,43.734c-.292-1.287,1.234-3.208.673-4.37-.57-1.182-3.029-1.182-3.838-2.2s-.273-3.416-1.292-4.231-3.229.249-4.41-.32c-1.162-.561-1.712-2.959-3-3.251C61.137,29.081,59.606,31,58.273,31s-2.865-1.916-4.112-1.631c-1.288.292-1.836,2.69-3,3.25-1.182.57-3.4-.49-4.411.32s-.476,3.211-1.291,4.23-3.269,1.017-3.839,2.2c-.561,1.162.966,3.083.673,4.37-.284,1.248-2.5,2.316-2.5,3.649s2.216,2.4,2.5,3.648c.292,1.288-1.234,3.208-.673,4.37.57,1.182,3.03,1.183,3.839,2.2s.271,3.417,1.291,4.23a1.466,1.466,0,0,0,.693.283c1.125.183,2.761-.424,3.717.037,1.162.563,1.711,2.96,3,3.251,1.081.248,2.374-1.156,3.569-1.535a1.8,1.8,0,0,1,.543-.094c.013,0,.027,0,.04,0,1.325.038,2.836,1.909,4.07,1.626,1.29-.291,1.837-2.688,3-3.249.834-.4,2.183,0,3.261,0a1.821,1.821,0,0,0,1.149-.317c1.02-.812.476-3.21,1.292-4.23s3.269-1.013,3.838-2.2c.561-1.162-.966-3.082-.673-4.37.285-1.248,2.5-2.315,2.5-3.648S74.535,44.982,74.25,43.734Z" transform="translate(-39.795 -29.336)"/></svg>